<?xml version="1.0" encoding="UTF-8"?>
<!DOCTYPE svg PUBLIC "-//W3C//DTD SVG 1.1//EN" "http://www.w3.org/Graphics/SVG/1.1/DTD/svg11.dtd">
<svg xmlns="http://www.w3.org/2000/svg" xml:space="preserve" width="300px" height="250px" version="1.1" style="shape-rendering:geometricPrecision; text-rendering:geometricPrecision; image-rendering:optimizeQuality; fill-rule:evenodd; clip-rule:evenodd"
viewBox="0 0 3000 2500"
 xmlns:xlink="http://www.w3.org/1999/xlink">
 <defs>
  <style type="text/css">
   <![CDATA[
   
    *{animation-timing-function:linear;}
    .str0 {stroke:#2E4158;stroke-width:5}
    .str2 {stroke:#9AB7C1;stroke-width:4}
    .str3 {stroke:#506336;stroke-width:4}
    .str6 {stroke:#AEB9C1;stroke-width:4;stroke-linecap:round}
    .str1 {stroke:#AEB9C1;stroke-width:4;stroke-linecap:round}
    .str5 {stroke:#201600;stroke-width:4;stroke-linecap:round}
    .str4 {stroke:#313330;stroke-width:3;stroke-linecap:round}
    .fil2 {fill:none}
    .fil7 {fill:#00D0FF}
    .fil6 {fill:#061D96}
    .fil9 {fill:#303030}
    .fil11 {fill:#313330}
    .fil19 {fill:#3A3C39}
    .fil14 {fill:#446577}
    .fil16 {fill:#506336}
    .fil12 {fill:#513D30}
    .fil18 {fill:#6D5241}
    .fil17 {fill:#8C6F60}
    .fil15 {fill:#9AB7C1}
    .fil13 {fill:#D6E2EA}
    .fil3 {fill:#E4E7F2}
    .fil1 {fill:#EBEEF8}
    .fil4 {fill:#EEF0F9}
    .fil0 {fill:#FAFBFE}
    .fil8 {fill:white}
    .fil5 {fill:#2E4158;fill-rule:nonzero}
    .fil20 {fill:#33C19F;fill-rule:nonzero}
    .fil10 {fill:url(#id1)}
	
	
	.ef1{stroke:#70828E;stroke-width:6;stroke-linecap:round}
	.ef2{stroke:#8E9CA6;stroke-width:6;stroke-linecap:round}
	.back-line {stroke:#cbcfde;stroke-width:20;}
	
	[id^='gfs']{
		animation-iteration-count: infinite;
		animation-duration:.2s;
	}

	#gfs1e1{
	animation-name:scl1;
	transform-origin:506px 803px;
	}
	
	#gfs1e2{
	animation-name:scl1;
	transform-origin:837px 919px;
	}

	#gfs2e1{
	animation-name:scl2;
	transform-origin:773px 785px;
	animation-delay:.2s;
	}
	#gfs2e2{
	animation-name:scl2;
	transform-origin:525px 1070px;
	animation-delay:.2s;
	}
	
	#gfs3e1{
	animation-name:scl1;
	transform-origin:514px 954px;
	}
	#gfs3e2{
	animation-name:scl1;
	transform-origin:759px 1145px;
	animation-duration:.2s;
	}

	#gfs5e1{
	animation-name:scl2;
	transform-origin:650px 730px;
	animation-duration:.2s;
	}
	#gfs5e2{
	animation-name:scl2;
	transform-origin:615px 1150px;
	animation-duration:.4s;
	}
		
	@keyframes scl1{
		0%{transform:scale(0.8)}
		50%{transform:scale(1.3)}
		100%{transform:scale(0.8)}
		
	}
	@keyframes scl2{
		0%{transform:scale(1.3)}
		50%{transform:scale(0.8)}
		100%{transform:scale(1.3)}
	}
	
	#hale{
	animation-name:hale_mv;
	animation-duration:.7s;
	animation-iteration-count:infinite;
	}
	@keyframes hale_mv{
		0%{transform:translate(0px);}
		100%{transform:translate(-5000px, 0);}
	}
	
	#le1,#le2{
		animation-name:lef_mv;
		animation-duration:0.2s;
		animation-iteration-count:infinite;
		animation-timing-function:linear;
	}
	#le2{animation-delay:.1s}
	@keyframes lef_mv{
		0%{transform:translate(0px);}
		100%{transform:translate(-450px, 0);opacity:0;}
	}	
	#le3,#le5{
		animation-duration:0.2s;
		animation-iteration-count:infinite;
		opacity:0;
	}
	#le3{
		animation-name:lef_3_mv;
	}
	#le5{
		animation-name:lef_5_mv;
		animation-delay:0.1s
	}
	@keyframes lef_3_mv{
		0%{transform:translate(0px);opacity:1;}
		100%{transform:translate(-275px, -100px) ;opacity:0;}
	}
	@keyframes lef_5_mv{
		0%{transform:translate(0px);opacity:1;}
		100%{transform:translate(-275px, 100px) ;opacity:0;}
	}
	
	#wws1{
		animation-name:wws_mv1,wws_mv2;
		animation-duration:.3s,.3s;
		animation-iteration-count:1;
		animation-delay:.3s,1.4s;
		animation-fill-mode:forwards;
		opacity:0;
		animation-timing-function:ease-in,ease-in;
	}
	@keyframes wws_mv1{
		0%{transform:translate(0px, -400px);opacity:0;}
		100%{transform:translate(0px, 0px);opacity:1;}
	}
	@keyframes wws_mv2{
		0%{transform:translate(0px, 0px);opacity:1;}
		100%{transform:translate(0px, -400px);opacity:0;}
	}
	#bot_wws{
		transform-origin:1500px 2090px;
		animation-name:tb1_scl,tb1_trslt;
		animation-duration:0.4s,.3s;
		animation-iteration-count:1;
		transform:scale(0);
		animation-fill-mode:forwards;
		animation-delay:.6s,1.4s;
	}
	
	@keyframes tb1_scl{
		0%{transform:scale(0);}
		50%{transform:scale(1.2);}
		100%{transform:scale(1);}
	}
	@keyframes tb1_trslt{
		0%{transform:translate(0px, 0px);opacity:1;}
		100%{transform:translate(0px, 400px);opacity:0;}
	}
	
	#wrp_bot_wpm{
		transform:translate(0, -150px);
		animation-name:wpm_trslt;
		animation-duration:0.3s;
		animation-delay:2.3s;
		animation-fill-mode:forwards;
	}
	@keyframes wpm_trslt{
			0%{transform:translate(0px, -150px);}
			100%{transform:translate(0px, 0px);}
		}
		
		
	#bot_wpm_1,#bot_wpm_2,#top_wpm{
		animation-name:wpm_scl;
		animation-duration:0.3s;
		animation-iteration-count:1;
		transform:scale(0);
		animation-fill-mode:forwards;
	}
	#bot_wpm_1{transform-origin: 1500px 2100px;animation-delay:1.6s}
	#bot_wpm_2{transform-origin: 1500px 2000px;animation-delay:1.7s}
	#top_wpm{transform-origin: 1500px 1800px;animation-delay:2.3s}

	
	@keyframes wpm_scl{
		0%{transform:scale(0);}
		100%{transform:scale(1);}
	}
	
	#logo{
		animation-name:logo_op;
		animation-duration:1s;
		animation-iteration-count:1;
		opacity:0;
		animation-fill-mode:forwards;
		animation-delay:2.3s;
		animation-timing-function:ease-in;
	}
	@keyframes logo_op{
		0%{opacity:0;}
		100%{opacity:1}
	}

	
	
	#clouds{
		animation-name:cld_main_mv;
		animation-duration:1.2s;
		animation-iteration-count:infinite;
		animation-delay:0s;
		animation-fill-mode:forwards;
	}

	@keyframes cld_main_mv{
		0%{transform:translate(0px, 0px)}
		100%{transform:translate(-8000px, 0px)}
	}
	
	#sloth_rocket{
		animation-name:rck_w_mv;
		animation-duration:2s;
		animation-iteration-count:infinite;
		animation-delay:0s;
		transform:translate(0,-80px);
		animation-timing-function:ease-in-out;
	}
	@keyframes rck_w_mv{
		0%{transform:translate(0,-80px);}
		50%{transform:translate(0,80px);}
		100%{transform:translate(0,-80px);}

	}
	
	#left_hand{
		animation-name:hnd_rtt;
		animation-duration:2s;
		animation-iteration-count:infinite;
		transform-origin: 2160px 556px;
		transform:rotate(12deg);
		animation-delay:.2s;
		animation-timing-function:ease-in-out;
	}
	
	@keyframes hnd_rtt{
		0%{transform:rotate(12deg);}
		50%{transform:rotate(-3deg);}
		100%{transform:rotate(12deg);}
	}
	
   ]]>
  </style>
   <clipPath id="id0">
    <path d="M-4405 135l5000 0 0 1381 -5000 0 0 -1381z"/>
   </clipPath>
  <linearGradient id="id1" gradientUnits="userSpaceOnUse" x1="861.354" y1="983.525" x2="1388.98" y2="983.525">
   <stop offset="0" style="stop-opacity:1; stop-color:#E4E7F2"/>
   <stop offset="1" style="stop-opacity:1; stop-color:#EBEEF8"/>
  </linearGradient>
  
    <linearGradient id="mask_cl_gradient">
	   <stop offset="0" stop-color="white" stop-opacity="0.2"/>
	   <stop offset="0.3" stop-color="white" stop-opacity="0.9"/>
	   <stop offset="0.7" stop-color="white" stop-opacity="0.9"/>
	   <stop offset="1" stop-color="white" stop-opacity="0.2"/>
	  </linearGradient> 
  
  <mask id="clouds_mask">
		<polygon points="0,0 3000,0 3000,2500 0,2500" fill="url(#mask_cl_gradient)" />
    </mask>
    
 </defs>
   
 <g id="back">
  <rect class="fil0" width="3000" height="2500"/>
 </g>
 <g mask="url(#clouds_mask)">
  <g id="clouds">
   <path id="cloud2" class="fil1" d="M4711 1294c82,-110 300,-113 412,-44 119,-74 367,-54 432,88 252,-23 297,258 3,215 0,116 -164,158 -254,158 -81,0 -153,-23 -199,-59 -137,32 -411,25 -459,-169 -122,-58 -53,-168 65,-189zm775 495c33,-8 66,12 75,45 12,48 -35,89 -80,74 -21,2 -56,-11 -55,-35 -58,-38 -12,-108 60,-84z"/>
  <path id="cloud5" class="fil1" d="M3180 311c60,-81 221,-83 303,-32 89,-55 272,-40 320,65 186,-17 219,190 2,159 0,85 -121,116 -188,116 -60,0 -112,-17 -146,-43 -102,23 -304,18 -339,-125 -90,-43 -40,-124 48,-140z"/>
  <path id="cloud6" class="fil1" d="M7251 694c-105,149 -803,86 -788,-70 1,-5 2,-8 3,-12 -98,-14 -166,-44 -166,-80 0,-43 104,-79 242,-87 0,-1 0,-3 0,-4 0,-87 201,-97 271,-86 71,-67 379,-56 396,80 325,-3 384,236 42,259z"/>
  <path id="cloud7" class="fil4" d="M7590 2094c-82,-183 236,-216 349,-174 42,-62 129,-61 175,-3 140,-86 384,-2 353,181 328,112 11,384 -302,247 -198,100 -794,63 -787,-126 1,-55 86,-101 212,-125zm1407 202c12,-24 -11,-50 -33,-55 -15,-18 -42,-20 -60,-5 -26,22 -18,57 11,72 8,11 36,20 45,5 14,2 28,-4 37,-17zm-102 -101c14,-7 22,-22 21,-38 49,-122 -48,-127 -49,-130 -8,-13 -73,0 -91,12 -18,12 -15,51 -15,51 -26,17 -37,46 -25,67 7,10 38,29 42,36 15,24 106,8 117,2z"/>

 </g>
 </g>


 <g id="wws">
  <path id="bot_wws" class="fil5 str0" d="M558 1952l0 44 -77 0 0 234 -56 0 0 -234 -76 0 0 -44 209 0zm169 -4c185,0 185,285 0,285 -185,0 -185,-285 0,-285zm0 51c-111,0 -111,182 0,182 111,0 111,-182 0,-182zm404 -50c63,0 113,32 127,93l-58 0c-28,-64 -150,-59 -150,49 0,116 147,123 166,26l-94 0 0 -40 141 0c0,44 5,66 -23,104 -66,89 -247,66 -247,-90 0,-82 54,-142 138,-142zm312 -1c185,0 185,285 0,285 -185,0 -185,-285 0,-285zm0 51c-110,0 -110,182 0,182 111,0 111,-182 0,-182zm448 -47l0 44 -117 0 0 75 93 0 0 42 -93 0 0 117 -56 0 0 -278 173 0zm215 222l-112 0 -20 56 -58 0 102 -275 64 0 102 275 -59 0 -19 -56zm-15 -42l-41 -117 -41 117 82 0zm322 22c0,108 -190,105 -199,-4l59 0c6,51 80,53 80,6 0,-62 -140,-30 -140,-131 0,-103 184,-105 194,1l-60 0c-7,-46 -74,-45 -74,-3 0,60 140,30 140,131zm238 -202l0 44 -77 0 0 234 -55 0 0 -234 -77 0 0 -44 209 0z"/>
  <path id="wws1" class="fil5" d="M422 1580l-60 114 0 62 -36 0 0 -62 -60 -114 41 0 37 77 38 -77 40 0zm83 36c94,0 94,142 0,142 -95,0 -95,-142 0,-142zm0 30c-47,0 -47,81 0,81 46,0 46,-81 0,-81zm228 -28l0 138 -35 0 0 -28c-19,48 -100,40 -100,-30l0 -80 35 0c0,21 -6,86 9,102 21,23 56,4 56,-29l0 -73 35 0zm67 26c11,-17 29,-28 49,-28l0 37c-62,0 -49,33 -49,103l-35 0 0 -138 35 0 0 26zm322 -26l-38 138 -39 0 -29 -101 -31 101 -39 0 -37 -138 35 0 23 107 31 -107 37 0 31 107 23 -107 33 0zm147 64c0,3 0,7 -1,12l-101 0c1,42 56,48 63,13l37 0c-14,75 -135,67 -135,-20 0,-93 137,-94 137,-5zm-35 -4c2,-46 -65,-44 -67,0l67 0zm143 -62c81,0 81,142 0,142 -22,0 -40,-11 -47,-31l0 29 -36 0 0 -185 36 0 0 75c7,-19 25,-30 47,-30zm-11 31c-48,0 -48,80 0,80 48,0 48,-80 0,-80zm145 -31c31,0 54,16 60,47l-33 0c-10,-49 -91,-5 -15,13 24,6 49,13 49,42 0,56 -105,54 -114,-7l34 0c3,25 48,32 48,6 0,-30 -81,-9 -81,-61 0,-27 25,-40 52,-40zm84 -38c0,-25 43,-25 43,0 0,25 -43,25 -43,0zm39 40l0 138 -36 0 0 -138 36 0zm106 108l0 30c-80,0 -67,-28 -67,-109l-19 0 0 -29 19 0 0 -35 36 0 0 35 31 0 0 29 -31 0c0,73 -11,79 31,79zm155 -44c0,3 0,7 -1,12l-101 0c1,42 56,48 63,13l37 0c-14,75 -135,67 -135,-20 0,-93 137,-94 137,-5zm-35 -4c2,-46 -65,-44 -67,0l67 0zm313 -60l-37 138 -39 0 -30 -101 -30 101 -39 0 -37 -138 35 0 22 107 31 -107 37 0 31 107 23 -107 33 0zm72 -2c21,0 40,11 47,30l0 -28 36 0 0 138 -36 0 0 -29c-20,54 -108,37 -108,-40 0,-38 21,-71 61,-71zm11 31c-49,0 -49,80 0,80 48,0 48,-80 0,-80zm186 -31c35,0 52,25 52,60l0 80 -34 0c0,-22 5,-86 -9,-102 -22,-23 -56,-4 -56,29l0 73 -36 0 0 -138 36 0 0 27c7,-19 26,-29 47,-29zm157 110l0 30c-79,0 -66,-28 -66,-109l-19 0 0 -29 19 0 0 -35 35 0 0 35 31 0 0 29 -31 0c0,73 -10,79 31,79zm73 -110c32,0 55,16 60,47l-33 0c-10,-49 -90,-5 -15,13 25,6 50,13 50,42 0,56 -105,54 -115,-7l34 0c3,25 48,32 48,6 0,-30 -80,-9 -80,-61 0,-27 24,-40 51,-40z"/>
 </g>
 <g id="logo">
  <g>
   <polygon id="logo_back" class="fil1" points="131,489 483,489 483,137 131,137 "/>
   <path id="dark_blue" class="fil6" d="M386 423l-34 0c0,-85 -65,-154 -150,-154l0 -32c101,0 184,82 184,184l0 2zm-184 -223c123,0 220,100 220,223l-33 0 0 -2c0,-103 -84,-187 -187,-187l0 -34z"/>
   <path id="cyan" class="fil7" d="M202 290l0 0c72,0 131,59 131,131l0 2 -34 0 0 -2c0,-54 -44,-98 -98,-98l1 -33zm95 133l-34 0c0,-1 0,-1 0,-2 0,-35 -28,-62 -62,-62l0 -34 0 0c53,0 96,43 96,96l0 2z"/>
   <path id="white2" class="fil8" d="M201 323c54,0 98,44 98,98l0 2 -2 0 0 -2c0,-53 -43,-96 -96,-96l0 -2 0 0z"/>
   <path id="white1" class="fil8" d="M202 234l0 0c103,0 187,84 187,187l0 2 -3 0c0,-1 0,-1 0,-2 0,-102 -83,-184 -184,-184l0 -3z"/>
   <path id="arr" class="fil6" d="M321 345l-111 78c-9,0 -13,0 -13,0 0,0 2,-4 5,-12l119 -66z"/>
   <polygon id="dot_blue" class="fil6" points="1086,426 1113,426 1113,398 1086,398 "/>
   <path id="logo_text" class="fil9" d="M1067 218l-21 0 0 -18 63 0 0 18 -21 0 0 74 -21 0 0 -74zm-79 44c0,24 35,17 27,0 -6,-12 -44,-9 -44,-38 0,-34 64,-38 64,3l-21 0c0,-19 -22,-16 -22,-4 0,17 45,10 45,41 0,40 -70,40 -70,-3l21 0 0 1zm-71 -45l0 21 35 0 0 17 -35 0 0 20 35 0 0 17 -57 0 0 -92 57 0 0 17 -35 0zm-111 -17l21 0c0,9 -1,62 1,67 5,15 28,12 28,-6l0 -61 21 0 0 61c0,45 -71,45 -71,0l0 -61 0 0zm-58 95l45 0 0 -20 -11 0c22,-29 4,-76 -39,-76 -46,0 -64,52 -36,81 13,14 29,17 41,15zm-5 -20c35,0 35,-58 0,-58 -36,0 -36,58 0,58zm-99 -58l0 21 36 0 0 17 -36 0 0 20 36 0 0 17 -57 0 0 -92 57 0 0 17 -36 0zm-70 -17c19,0 33,15 33,34 0,13 -6,23 -18,29l19 30 -25 0 -17 -26 -10 0 0 25 -21 0 0 -92 39 0zm-3 18l-15 0 0 31 15 0c19,0 19,-31 0,-31zm61 205l-20 0 0 -56 -20 56 -16 0 -20 -56 0 56 -21 0 0 -92 24 0 25 64 24 -64 24 0 0 92zm37 -74l0 20 35 0 0 17 -35 0 0 20 35 0 0 17 -56 0 0 -92 56 0 0 18 -35 0zm63 1l-20 0 0 -19 63 0 0 19 -21 0 0 73 -22 0 0 -73zm87 31c19,0 19,-32 0,-32l-15 0 0 31 15 1zm3 -50c19,0 34,15 34,34 0,13 -6,24 -18,30l18 29 -24 0 -16 -26 -10 0 0 26 -22 0 0 -93 38 0zm45 0l22 0 0 92 -22 0 0 -92zm127 60c-9,51 -95,46 -95,-14 0,-57 85,-67 95,-10l-22 0c-5,-28 -52,-25 -52,11 0,32 41,41 52,13l22 0zm29 2c0,24 34,17 26,0 -6,-11 -44,-8 -44,-38 0,-33 64,-37 64,3l-21 0c0,-18 -23,-16 -23,-4 0,17 46,10 46,42 0,40 -70,39 -70,-4l22 0 0 1z"/>
  </g>
 </g>
 <g id="sloth_rocket">
  <g id="smoke_hale">
   <g style="clip-path:url(#id0)">
   <g>
    <path id="hale" class="fil1" d="M-4501 837c9,-2 18,-2 29,-2 11,0 21,0 31,2 17,-3 85,-42 147,23 24,-11 55,-18 89,-18 38,0 72,9 97,22 18,4 57,-4 110,13 67,-64 262,-64 324,4 29,-53 135,-69 197,-42 55,-24 120,4 141,56 34,-40 139,-47 196,-25 73,-36 218,-20 238,53l29 0c9,-41 53,-78 124,-78 13,0 26,1 37,2 32,-13 79,-22 131,-22 40,0 76,5 105,13 54,-27 116,7 128,59 19,-8 43,-13 69,-13 26,0 49,5 68,13 -10,-72 163,-109 222,-38 60,-24 171,-6 181,51 14,-4 32,-8 53,-10 53,-69 188,-67 238,3 5,-2 10,-3 15,-4 18,-15 30,-24 54,-30 13,-4 26,-6 40,-8 41,-3 97,-1 150,19 52,-53 183,-55 243,-9 49,-20 132,-19 177,5 24,-48 85,-73 137,-50 63,-26 169,-11 198,42 63,-69 279,-70 334,8l149 -27c48,-7 98,-3 145,5 49,-43 85,-25 114,-25 21,0 115,-27 173,31 43,-15 68,-31 116,-31 11,0 21,1 31,2 17,-3 85,-41 147,24 24,-11 55,-18 89,-18 38,0 72,8 97,22 18,4 57,-4 110,12 67,-63 262,-63 324,4 29,-53 135,-68 197,-41 55,-25 120,4 141,56 34,-40 139,-47 196,-26 73,-36 218,-19 238,54l29 0c9,-42 53,-79 124,-79 13,0 26,1 37,3 32,-14 79,-22 131,-22 40,0 76,5 105,13 54,-27 116,7 128,59 19,-8 43,-13 69,-13 26,0 49,5 68,13 -10,-72 163,-109 222,-38 60,-24 171,-6 181,51 14,-4 32,-8 53,-11 53,-68 188,-67 238,4 5,-2 10,-3 15,-4 18,-15 30,-24 54,-31 13,-3 27,-6 40,-7 41,-4 97,-1 150,19 52,-53 183,-56 243,-9 49,-21 132,-19 177,4 24,-48 85,-72 137,-49 63,-26 169,-11 198,42 63,-70 279,-70 334,7l149 -27c48,-6 98,-2 145,6 49,-43 85,-26 114,-25 21,0 115,-27 173,31 30,-10 52,-24 87,-29l0 281c-47,4 -86,-8 -104,-10 -33,-2 -82,16 -148,-20 -48,27 -163,10 -185,-27 -18,71 -144,88 -205,44 -81,27 -268,8 -243,-64l-27 -12c30,94 -178,117 -215,36 -27,51 -104,55 -136,7 -40,43 -85,44 -149,48 -33,1 -67,2 -96,-11 -95,50 -122,112 -417,57 -37,32 -120,28 -139,-22 -39,3 -51,39 -129,39 -49,0 -92,-17 -120,-43 -49,-5 -93,-14 -128,-25 -50,59 -181,61 -237,6 -113,30 -229,37 -299,-36 -16,5 -40,8 -59,8 -19,0 -31,-2 -44,-4 -41,52 -123,67 -173,9 -68,75 -319,73 -415,23 -34,16 -75,12 -113,12 -56,0 -105,-20 -131,-49 -32,48 -110,44 -136,-7 -38,83 -249,57 -215,-38 -8,6 -17,10 -28,14 26,73 -161,92 -242,65 -64,46 -203,24 -207,-56 -11,14 -33,25 -62,31 -16,13 -40,21 -66,21 -21,0 -40,-5 -55,-13 -71,38 -107,18 -181,13 -33,-3 -82,15 -148,-20 -48,26 -163,10 -185,-28 -18,72 -144,89 -205,45 -81,26 -268,8 -243,-65l-27 -12c30,95 -178,118 -215,36 -27,51 -104,55 -136,7 -40,44 -85,45 -150,48 -32,2 -66,3 -95,-11 -95,50 -122,112 -417,57 -37,32 -120,29 -139,-22 -39,4 -51,39 -129,39 -49,0 -92,-17 -120,-42 -49,-6 -93,-15 -128,-26 -50,60 -181,62 -237,6 -113,30 -229,37 -299,-36 -16,5 -40,8 -59,8 -19,0 -31,-1 -44,-4 -41,52 -123,67 -173,10 -68,75 -319,73 -415,22 -34,17 -75,12 -113,12 -56,0 -105,-19 -131,-49 -32,49 -110,45 -136,-6 -39,83 -249,57 -215,-38 -8,5 -17,9 -28,13 25,73 -161,92 -243,65 -63,46 -202,24 -207,-56 -10,14 -32,26 -61,32 -16,12 -40,20 -66,20 -21,0 -40,-4 -55,-13 -27,14 -53,21 -77,23l0 -281z"/>
   </g>
  </g>
  <polygon class="fil2" points="-4405,135 595,135 595,1516 -4405,1516 "/>
 </g>
 
  <polygon id="rck_smoke" class="fil10" points="1389,1115 1365,852 862,890 861,1045 "/>
  <g id="smoke">
  <g id="gs3">
   <ellipse id="gfs3e2" class="fil3" cx="759" cy="1145" rx="92" ry="89"/>
   <ellipse id="gfs3e1" class="fil3" cx="514" cy="954" rx="136" ry="91"/>
  </g>
  <g id="gs1">
   <ellipse id="gfs1e1" class="fil3" cx="506" cy="803" rx="94" ry="99"/>
   <circle id="gfs1e2" class="fil3" cx="837" cy="919" r="94"/>
  </g>
  <g id="gs2">
   <ellipse id="gfs2e2" class="fil3" cx="525" cy="1070" rx="102" ry="95"/>
   <ellipse id="gfs2e1" class="fil3" cx="773" cy="785" rx="99" ry="91"/>
  </g>
  <g id="gs5">
   <ellipse id="gfs5e2" class="fil3" cx="615" cy="1150" rx="102" ry="95"/>
   <ellipse id="gfs5e1" class="fil3" cx="650" cy="730" rx="99" ry="91"/>
  </g>
  <g id="gs4">
   <ellipse id="gfs4e1" class="fil3" cx="828" cy="1036" rx="90" ry="82"/>
  </g>
  <ellipse id="smk_cntr" class="fil3" cx="660" cy="951" rx="160" ry="207"/>
 </g>
  <g id="effects">
   <line id="le1" class="fil2 ef1" x1="1484" y1="941" x2="1358" y2= "941" />
   <line id="le2" class="fil2 ef1" x1="1480" y1="1039" x2="1358" y2= "1039" />
  </g>
  <g id="left_hand">
   <path class="fil11" d="M2690 677c4,0 15,-61 -10,-76 -4,-2 -4,0 -4,2 3,43 2,65 -16,72l30 2z"/>
   <path class="fil12" d="M2371 698c49,-1 208,-23 256,-34 58,-1 80,2 94,11 8,5 13,12 15,21 1,4 2,11 -2,17 -11,21 -39,28 -39,28 -3,0 -20,3 -34,3 -8,-1 -15,5 -22,13 -2,3 -2,1 -4,0 -12,-5 -57,32 -64,26 0,0 -3,-2 2,-7 0,0 -188,80 -235,77l-240 -84 273 -71z"/>
   <path class="fil11" d="M2673 711c0,0 32,20 48,21 4,-1 8,-2 12,-13 2,-5 -60,-16 -60,-8z"/>
   <path class="fil11" d="M2671 695c11,3 46,10 66,10 4,0 10,-10 -1,-20 -1,-5 -50,0 -65,6 -1,1 -1,2 -1,3 0,0 0,1 1,1z"/>
  </g>
  <g id="sl_rck">
   <path class="fil13" d="M1727 1232c-30,-3 -58,-7 -86,-11 -14,-3 -28,-5 -41,-7 -26,-5 -51,-10 -75,-16 -34,-40 -58,-121 -61,-216 -2,-95 18,-177 49,-219 24,-7 49,-14 75,-20 13,-3 25,-6 39,-9l0 0c28,-6 57,-11 86,-17 222,-37 426,-29 557,12 0,0 132,36 253,108 -14,76 -11,154 6,230 -117,76 -247,124 -247,124 -128,49 -331,67 -555,41z"/>
   <path class="fil14" d="M1525 1198c-18,-5 -35,-9 -52,-14 -37,-9 -72,-21 -104,-32 -31,-37 -51,-98 -53,-167 -1,-34 3,-69 12,-102 2,-7 4,-14 7,-20 6,-16 14,-32 23,-46 0,0 1,0 1,0 33,-14 68,-27 105,-39 15,-5 30,-10 45,-14 2,-1 3,-1 4,-1 0,1 -1,2 -2,3 -14,19 -25,47 -33,81 -11,44 -15,89 -13,134 2,95 26,177 60,217z"/>
   <path class="fil14" d="M2529 1069c-17,-76 -19,-154 -5,-230 52,31 102,68 139,113 -33,43 -83,83 -134,117z"/>
   <path class="fil15" d="M1359 817c-13,-20 -45,-35 -87,-42 -4,-1 -7,-4 -6,-8 0,-2 1,-3 2,-4 24,-20 67,-34 116,-36 55,-1 102,14 125,36 -15,5 -30,10 -45,15 -37,12 -72,25 -105,39z"/>
   <path class="fil15" d="M1368 1152c-12,20 -44,37 -85,47 -4,1 -6,4 -6,8 1,1 2,3 3,4 25,19 68,30 117,29 55,-1 102,-19 124,-43 -16,-3 -31,-8 -46,-11 -38,-11 -74,-22 -107,-34z"/>
   <path class="fil15" d="M1341 1018c-42,1 -79,-3 -105,-9 -3,-1 -5,-4 -4,-8 0,-2 2,-3 4,-4 25,-8 62,-13 104,-14 52,-2 98,4 122,14 -24,11 -69,19 -121,21z"/>
   <path class="fil2 str2" d="M2515 962c0,0 -523,93 -1050,36"/>
   <circle class="fil14" cx="1498" cy="1051" r="9"/>
   <circle class="fil14" cx="1527" cy="1160" r="9"/>
   <circle class="fil14" cx="1495" cy="940" r="9"/>
   <circle class="fil14" cx="1516" cy="828" r="9"/>
   <circle class="fil15" cx="1902" cy="1038" r="11"/>
   <circle class="fil15" cx="2149" cy="1024" r="11"/>
   <circle class="fil15" cx="2396" cy="1003" r="11"/>
   <circle class="fil15" cx="1655" cy="1037" r="11"/>
   <path class="fil15" d="M2320 743l-157 -56 -392 62 -231 -75c8,80 139,182 232,194 53,7 131,10 199,-25 90,-46 205,-69 295,-72 50,-2 100,2 149,11l-95 -39z"/>
   <path class="fil15" d="M1533 757c0,0 37,111 68,130l-46 -135 -22 5z"/>
   <path class="fil15" d="M2015 1001c0,0 -5,100 25,148 8,14 17,25 18,37 2,14 3,24 0,34 -4,8 -8,15 -14,21l26 -2 16 -38 -8 -92 -63 -108z"/>
   <path class="fil2 str3" d="M2237 479c-2,-23 -14,-43 -32,-57"/>
   <path class="fil16" d="M2207 426c3,-2 -17,-26 -53,-22 0,0 29,37 53,22z"/>
   <path class="fil16" d="M2167 377c0,0 48,10 44,49 0,1 -31,-5 -44,-49z"/>
   <path class="fil17" d="M2343 747c0,0 -186,-14 -362,76 -90,47 -201,32 -242,13l27 -104 407 -65 170 80z"/>
   <path class="fil18" d="M2584 640c11,-48 -33,-90 -33,-90 -5,-6 -11,-11 -17,-16 -2,-4 -9,-18 -20,-22 -9,-4 -2,6 5,13 -11,-5 -21,-10 -32,-14 -7,-3 -13,-5 -20,-9 -12,-5 -37,-12 -42,-11 -7,2 17,12 17,12l0 0c-13,1 -25,1 -37,-1 -29,-4 -47,-8 -83,-15 -23,-5 -43,-15 -45,-13 -4,3 5,15 5,15 -17,-6 -33,-14 -48,-23 -28,-16 -61,-36 -88,-53 -61,-39 -186,-87 -147,-52 0,0 -177,-39 -177,-31 -1,4 2,8 6,10 0,0 -136,3 -177,29 0,0 10,11 24,7 0,0 -87,39 -121,142 -26,78 -27,270 55,381 0,0 112,14 147,-3 3,-1 4,-5 3,-8 -2,-4 -6,-10 -17,-14l33 -120c0,0 48,12 243,-38 0,0 179,-21 291,19 7,3 30,10 43,15 17,6 34,11 52,14 25,4 50,1 75,-8 24,9 68,-36 68,-36 19,-22 33,-50 37,-80z"/>
   <path class="fil19" d="M2099 1178c-2,-12 7,35 0,51 -6,10 -20,18 -22,22 -2,4 26,2 41,-20 14,-22 1,-69 1,-69l-20 16z"/>
   <path class="fil19" d="M2105 1141c-9,-8 27,24 30,41 1,11 -5,27 -4,31 1,4 22,-14 20,-41 -1,-27 -27,-47 -27,-47l-19 16z"/>
   <path class="fil19" d="M2070 1172c-2,-12 7,35 0,51 -5,10 -20,18 -22,22 -1,4 26,2 41,-20 15,-22 5,-47 5,-47l-24 -6z"/>
   <path class="fil18" d="M2097 1184c11,-2 25,-21 29,-32 11,-29 22,-91 24,-160 3,-103 13,-232 50,-317l-194 26c-5,30 -10,104 -15,128 -3,11 -7,23 -12,34 -1,1 0,3 1,3 0,0 2,1 2,0 6,-4 12,-7 18,-12 0,0 -8,26 5,31 0,0 -27,38 -14,41l18 -5c5,14 7,29 9,44 0,13 -4,26 -12,37 -2,3 -3,5 -5,7 -2,1 2,4 4,3l12 -3c4,18 7,37 7,56 0,24 6,48 18,68 12,23 28,55 55,51z"/>
   <path class="fil2 str4" d="M2183 714c2,-18 12,-37 18,-54"/>
   <path class="fil2 str4" d="M2001 719l14 -83c0,0 0,0 -1,0 0,0 0,0 0,0 -3,2 -19,8 -17,0 3,-8 15,-38 24,-48"/>
   <path class="fil17" d="M2547 686c-13,-9 -25,-19 -35,-31 -12,-12 -11,-23 -7,-29 6,-7 15,-10 23,-6 20,7 26,31 29,45 0,1 0,1 1,1 0,0 1,-1 1,-1 5,-15 4,-32 -3,-46 -8,-16 -25,-33 -55,-50l0 0c-31,-17 -54,-22 -72,-21 -16,1 -31,9 -41,21 -1,1 -1,2 0,2 0,1 1,1 1,1 13,-6 37,-13 54,0 7,5 9,15 6,23 -3,6 -12,13 -28,10 -15,-4 -31,-8 -45,-15 -1,0 -2,0 -2,1 -2,44 -17,54 -14,56 3,3 13,-5 13,-5 9,46 -10,47 -8,50 1,4 7,2 10,1 1,-1 2,0 3,1 0,0 0,0 0,0 4,9 8,19 11,29 2,5 2,11 1,17 0,1 0,2 1,2 6,0 21,4 32,2 7,-1 14,-5 20,-9 0,0 -6,5 -4,7 3,3 37,-6 66,-27 0,0 -7,6 -7,9 0,3 31,-9 50,-37 0,0 0,-1 -1,-1 0,0 0,0 0,0z"/>
   <path class="fil11" d="M2492 640c2,-6 0,-13 -6,-17l-11 -6 -11 -7c-5,-4 -13,-3 -18,2 -3,4 -4,10 -1,19l8 16c1,2 2,3 3,3l19 -1c10,0 15,-5 17,-9z"/>
   <path class="fil2 str5" d="M2419 585c0,0 9,-9 18,4"/>
   <path class="fil2 str5" d="M2528 644c0,0 2,-13 -14,-13"/>
   <path class="fil2 str5" d="M2463 661c-6,5 -14,4 -19,-2 -3,-4 -4,-8 -3,-13"/>
  </g>
   <g id="effects2">
  <path id="le3" class="fil2 ef2" d="M814 833c-65,15 -50,83 -34,97"/>
  <path id="le5" class="fil2 ef2" d="M782 992c-47,48 3,97 24,100"/>
 </g>
 </g>
 

 <g id="wpm">
 <path id="top_wpm" class="fil20" d="M847 1527c76,0 76,117 0,117 -76,0 -76,-117 0,-117zm0 21c-45,0 -45,75 0,75 45,0 45,-75 0,-75zm170 95l-22 0 -51 -78 0 78 -23 0 0 -114 23 0 51 78 0 -78 22 0 0 114zm44 -18l38 0 0 18 -61 0 0 -114 23 0 0 96zm143 -96l-38 74 0 40 -23 0 0 -40 -39 -74 26 0 24 50 25 -50 25 0zm130 83c0,22 -20,32 -40,32l0 13 -7 0 0 -13c-19,-2 -37,-13 -39,-34l25 0c1,8 6,14 14,16l0 -32c-7,-2 -14,-4 -22,-7 -30,-14 -20,-59 22,-60l0 -13 7 0 0 14c19,1 36,11 37,31l-24 0c-1,-7 -6,-12 -13,-14l0 31c19,6 40,11 40,36zm-58 -45c3,3 7,5 11,7l0 -29c-13,0 -20,14 -11,22zm18 60c14,-1 21,-16 11,-24 -2,-3 -6,-5 -11,-7l0 31zm48 -77l0 -21 41 0 0 114 -24 0 0 -93 -17 0zm59 35c0,39 15,58 44,58 34,0 43,-28 43,-58 0,-30 -9,-58 -43,-58 -29,0 -44,19 -44,58zm64 0c0,15 0,36 -20,36 -21,0 -22,-20 -22,-36 0,-16 1,-36 22,-36 20,0 20,21 20,36zm129 -95l-43 182 -22 0 44 -182 21 0zm166 40l0 113 -22 0 0 -79 -29 79 -20 0 -29 -78 0 78 -22 0 0 -113 27 0 34 85 34 -85 27 0zm74 -3c76,0 76,117 0,117 -75,0 -75,-117 0,-117zm0 21c-45,0 -45,75 0,75 46,0 46,-75 0,-75zm171 95l-23 0 -51 -78 0 78 -23 0 0 -114 23 0 51 78 0 -78 23 0 0 114zm98 -114l0 18 -32 0 0 96 -22 0 0 -96 -32 0 0 -18 86 0zm107 0l0 114 -23 0 0 -50 -49 0 0 50 -23 0 0 -114 23 0 0 46 49 0 0 -46 23 0z"/>
  <g id="wrp_bot_wpm">
   <path id="bot_wpm_1" class="fil5" d="M1268 1910l0 66 -35 0 0 -178c53,0 128,-13 128,56 0,57 -49,56 -93,56zm-920 -112l-43 178 -44 0 -34 -129 -33 129 -44 0 -44 -178 39 0 27 138 36 -138 39 0 35 138 28 -138 38 0zm156 103c0,4 0,8 -1,12l-103 0c2,49 58,45 65,14l37 0c-13,71 -136,72 -136,-21 0,-97 138,-93 138,-5zm-36 -3c2,-46 -65,-48 -68,0l68 0zm145 -63c83,0 83,143 0,143 -22,0 -40,-11 -48,-31l0 29 -36 0 0 -187 36 0 0 77c8,-21 26,-31 48,-31zm-11 31c-50,0 -50,81 0,81 50,0 49,-81 0,-81zm146 -31c32,0 55,16 61,47l-34 0c-6,-29 -47,-29 -47,-6 0,29 82,8 82,62 0,54 -105,58 -115,-7l34 0c3,27 48,30 48,6 0,-30 -81,-8 -81,-61 0,-28 24,-41 52,-41zm85 -39c0,-26 44,-26 44,0 0,26 -44,26 -44,0zm39 40l0 140 -35 0 0 -140 35 0zm108 110l0 30c-76,0 -68,-19 -68,-109l-19 0 0 -31 19 0 0 -34 36 0 0 34 31 0 0 31 -31 0c0,82 -7,79 32,79zm157 -45c0,4 -1,8 -2,12l-102 0c2,49 58,45 64,14l38 0c-14,71 -137,72 -137,-21 0,-97 139,-93 139,-5zm-36 -3c2,-46 -65,-48 -68,0l68 0zm193 -16c42,0 44,-55 0,-55l-26 0 0 55 26 0zm222 19c0,4 0,8 -1,12l-103 0c2,46 58,47 65,14l38 0c-15,74 -137,69 -137,-21 0,-95 138,-94 138,-5zm-36 -3c2,-47 -65,-47 -68,0l68 0zm97 -35c11,-18 29,-29 50,-29l0 39c-62,0 -50,28 -50,103l-35 0 0 -140 35 0 0 27zm139 -51c-20,-1 -29,5 -29,24l29 0 0 31 -29 0 0 109 -35 0 0 -109 -18 0 0 -31 18 0c0,-38 24,-59 64,-55l0 31zm85 23c96,0 96,143 0,143 -95,0 -95,-143 0,-143zm0 30c-47,0 -47,82 0,82 48,0 48,-82 0,-82zm133 -2c11,-18 29,-29 50,-29l0 39c-62,0 -50,28 -50,103l-36 0 0 -140 36 0 0 27zm247 -29c37,0 55,25 55,61l0 81 -35 0 0 -77c0,-47 -63,-44 -63,3l0 74 -36 0 0 -77c0,-47 -63,-44 -63,3l0 74 -36 0 0 -140 36 0 0 27c17,-41 78,-36 94,3 8,-19 27,-32 48,-32zm142 1c21,0 40,10 48,30l0 -29 35 0 0 140 -35 0 0 -29c-20,54 -110,39 -110,-41 0,-38 22,-71 62,-71zm11 31c-49,0 -49,81 0,81 49,0 49,-81 0,-81zm188 -32c35,0 53,26 53,61l0 81 -35 0 0 -77c0,-48 -66,-47 -66,3l0 74 -36 0 0 -140 36 0 0 28c8,-19 27,-30 48,-30zm147 1c35,0 62,20 68,54l-38 0c-8,-37 -64,-31 -64,17 0,49 56,55 64,18l38 0c-15,81 -138,70 -138,-18 0,-41 28,-71 70,-71zm225 66c0,4 -1,8 -2,12l-102 0c2,46 57,47 64,14l38 0c-14,74 -137,69 -137,-21 0,-95 139,-94 139,-5zm-36 -3c2,-47 -65,-47 -68,0l68 0z"/>
   <path id="bot_wpm_2" class="fil5" d="M1011 2112l0 176 -36 0 0 -123 -45 123 -31 0 -45 -122 0 122 -35 0 0 -176 43 0 53 132 53 -132 43 0zm97 34c96,0 96,144 0,144 -96,0 -96,-144 0,-144zm0 31c-48,0 -48,82 0,82 48,0 48,-82 0,-82zm180 -31c35,0 53,25 53,61l0 81 -35 0 0 -77c0,-48 -66,-48 -66,3l0 74 -35 0 0 -140 35 0 0 28c8,-20 27,-30 48,-30zm81 -38c0,-26 43,-26 43,0 0,26 -43,26 -43,0zm39 40l0 140 -35 0 0 -140 35 0zm107 110l0 30c-76,0 -67,-19 -67,-110l-19 0 0 -30 19 0 0 -34 36 0 0 34 31 0 0 30 -31 0c0,83 -7,80 31,80zm90 -112c97,0 96,144 0,144 -95,0 -96,-144 0,-144zm0 31c-47,0 -47,82 0,82 48,0 48,-82 0,-82zm133 -2c11,-18 28,-29 50,-29l0 38c-60,0 -50,23 -50,104l-36 0 0 -140 36 0 0 27zm65 -67c0,-26 44,-26 44,0 0,26 -44,26 -44,0zm40 40l0 140 -36 0 0 -140 36 0zm116 -2c35,0 53,25 53,61l0 81 -36 0 0 -77c0,-48 -65,-48 -65,3l0 74 -36 0 0 -140 36 0 0 28c8,-20 26,-30 48,-30zm139 0c22,0 40,11 48,31l0 -29 35 0 0 141c0,91 -127,87 -139,14l35 0c9,32 69,35 69,-14l0 -30c-18,49 -110,44 -110,-41 0,-39 22,-72 62,-72zm11 32c-50,0 -50,81 0,81 50,0 50,-81 0,-81z"/>
  </g>
 </g>
 <rect class="fil2 back-line" width="3000" height="2500"/>
</svg>
